<svg width="24" height="24" viewBox="0 0 24 24" fill="none" xmlns="http://www.w3.org/2000/svg">
<g clip-path="url(#clip0_1_271)">
<path d="M18.5745 3H5.42578C4.08622 3 3.00024 4.08593 3.00024 5.42554V18.5744C3.00024 19.914 4.08618 20.9999 5.42578 20.9999H11.9107L11.9217 14.5677H10.2507C10.0335 14.5677 9.85722 14.3921 9.85638 14.1749L9.84837 12.1016C9.84753 11.8832 10.0243 11.7058 10.2427 11.7058H11.9107V9.70238C11.9107 7.37746 13.3306 6.11152 15.4046 6.11152H17.1065C17.3242 6.11152 17.5008 6.28805 17.5008 6.50583V8.2541C17.5008 8.4718 17.3244 8.64828 17.1067 8.64841L16.0623 8.6489C14.9344 8.6489 14.716 9.18486 14.716 9.97142V11.7058H17.1944C17.4305 11.7058 17.6137 11.912 17.5859 12.1465L17.3402 14.2199C17.3167 14.4183 17.1484 14.5678 16.9486 14.5678H14.7271L14.716 21H18.5746C19.9142 21 21.0001 19.9141 21.0001 18.5745V5.42554C21.0001 4.08593 19.9141 3 18.5745 3Z" fill="#475993"/>
</g>
<defs>
<clipPath id="clip0_1_271">
<rect width="18" height="18" fill="white" transform="translate(3 3)"/>
</clipPath>
</defs>
</svg>
