<svg width="24" height="24" viewBox="0 0 24 24" fill="none" xmlns="http://www.w3.org/2000/svg">
<path d="M17.9799 18.75C20.0761 16.7812 21.0077 13.5 20.4487 10.3594H12.1108V13.8281H16.862C16.6757 14.9531 16.0236 15.8906 15.092 16.5L17.9799 18.75Z" fill="#4285F4"/>
<path d="M4.19214 15.9844C4.8049 17.1991 5.68368 18.258 6.76224 19.0812C7.8408 19.9044 9.091 20.4705 10.4186 20.7368C11.7462 21.0031 13.1165 20.9627 14.4263 20.6185C15.7361 20.2743 16.9511 19.6354 17.9799 18.75L15.0919 16.5C12.6232 18.1406 8.5241 17.5312 7.12669 13.6875L4.19214 15.9844Z" fill="#34A853"/>
<path d="M7.12679 13.6875C6.75415 12.5156 6.75415 11.4375 7.12679 10.2656L4.19224 7.96875C3.12089 10.125 2.79483 13.1719 4.19224 15.9844L7.12679 13.6875Z" fill="#FBBC02"/>
<path d="M7.12669 10.2657C8.15145 7.03128 12.53 5.15628 15.4645 7.9219L18.0265 5.39065C14.3932 1.87503 7.31301 2.01565 4.19214 7.96878L7.12669 10.2657Z" fill="#EA4335"/>
</svg>
