<svg width="12" height="12" viewBox="0 0 12 12" fill="none" xmlns="http://www.w3.org/2000/svg">
<g id="#000000ff">
<path id="Vector" d="M5.49216 0H5.75561C6.71147 1 7.59699 2.07035 8.51147 3.11035C8.73216 3.29379 8.6232 3.71862 8.32389 3.72828C7.80113 3.76414 7.27561 3.72966 6.75147 3.74207C6.74044 5.34759 6.75285 6.95311 6.74596 8.56C6.77492 8.73794 6.67285 8.8938 6.51975 8.98069C5.96802 9.01931 5.41216 9.00276 4.85906 8.99449C4.63009 9.01793 4.47837 8.76414 4.50871 8.55862C4.50044 6.95311 4.51285 5.34759 4.5032 3.74207C3.9432 3.72138 3.37768 3.78483 2.82182 3.70759C2.55699 3.55724 2.58871 3.20966 2.80388 3.03173C3.70733 2.02897 4.55975 0.976552 5.49216 0Z" fill="white"/>
<path id="Vector_2" d="M0.00417571 8.24305C0.499348 8.24167 0.993142 8.24443 1.48831 8.2334C1.52142 8.98788 1.49245 9.74374 1.50349 10.4996C4.2497 10.501 6.9959 10.501 9.74211 10.4996C9.74349 9.7534 9.74901 9.00719 9.73798 8.26098C10.2387 8.22374 10.7407 8.24443 11.2428 8.24305C11.24 9.2665 11.2566 10.2913 11.2373 11.3148C11.2497 11.6431 10.9587 11.8458 10.7131 12.0003H0.582107C0.293831 11.8955 0.00969295 11.6513 0.0124516 11.3217C-0.012376 10.2968 0.00831365 9.26926 0.00417571 8.24305Z" fill="white"/>
</g>
</svg>
