<svg width="171" height="174" viewBox="0 0 171 174" fill="none" xmlns="http://www.w3.org/2000/svg">
<g clip-path="url(#clip0_14_12)">
<path d="M85.127 128.773C107.764 128.773 126.115 110.057 126.115 86.9699C126.115 63.8828 107.764 45.167 85.127 45.167C62.4901 45.167 44.1392 63.8828 44.1392 86.9699C44.1392 110.057 62.4901 128.773 85.127 128.773Z" fill="#E65017" fill-opacity="0.1"/>
<path d="M85.1276 140.951C114.358 140.951 138.054 116.784 138.054 86.9726C138.054 57.1611 114.358 32.9941 85.1276 32.9941C55.8974 32.9941 32.2016 57.1611 32.2016 86.9726C32.2016 116.784 55.8974 140.951 85.1276 140.951Z" fill="#E65017" fill-opacity="0.08"/>
<path d="M85.1269 152.717C120.731 152.717 149.593 123.281 149.593 86.9689C149.593 50.6572 120.731 21.2207 85.1269 21.2207C49.5232 21.2207 20.6607 50.6572 20.6607 86.9689C20.6607 123.281 49.5232 152.717 85.1269 152.717Z" fill="#E65017" fill-opacity="0.06"/>
<path d="M85.3107 173.598C132.142 173.598 170.106 134.896 170.106 87.1543C170.106 39.4129 132.142 0.710899 85.3107 0.710899C38.4797 0.710899 0.515594 39.4129 0.515594 87.1543C0.515594 134.896 38.4797 173.598 85.3107 173.598Z" fill="#E65017" fill-opacity="0.04"/>
<path d="M95.4978 66.7188H74.7579C74.0977 66.7188 73.5625 67.254 73.5625 67.9142V106.019C73.5625 106.68 74.0977 107.215 74.7579 107.215H95.4978C96.158 107.215 96.6932 106.68 96.6932 106.019V67.9142C96.6932 67.254 96.158 66.7188 95.4978 66.7188Z" fill="#E65017" fill-opacity="0.5"/>
<path d="M94.2625 69.0234H75.9932C75.6631 69.0234 75.3955 69.291 75.3955 69.6211V101.034C75.3955 101.364 75.6631 101.631 75.9932 101.631H94.2625C94.5926 101.631 94.8602 101.364 94.8602 101.034V69.6211C94.8602 69.291 94.5926 69.0234 94.2625 69.0234Z" fill="white"/>
<path d="M85.1283 106.137C86.043 106.137 86.7844 105.396 86.7844 104.481C86.7844 103.566 86.043 102.825 85.1283 102.825C84.2137 102.825 83.4722 103.566 83.4722 104.481C83.4722 105.396 84.2137 106.137 85.1283 106.137Z" fill="#7D2200"/>
<path opacity="0.5" d="M85.1279 92.1885C89.2981 92.1885 92.6787 88.8079 92.6787 84.6377C92.6787 80.4675 89.2981 77.0869 85.1279 77.0869C80.9577 77.0869 77.5771 80.4675 77.5771 84.6377C77.5771 88.8079 80.9577 92.1885 85.1279 92.1885Z" fill="#E65017"/>
<mask id="mask0_14_12" style="mask-type:luminance" maskUnits="userSpaceOnUse" x="81" y="81" width="8" height="8">
<path d="M88.7555 81.0078H81.4995V88.2638H88.7555V81.0078Z" fill="white"/>
</mask>
<g mask="url(#mask0_14_12)">
<path d="M87.8488 85.2423C87.7686 85.2423 87.6917 85.2741 87.635 85.3308C87.5783 85.3875 87.5465 85.4644 87.5465 85.5446V86.7539C87.5465 86.8341 87.5146 86.911 87.4579 86.9677C87.4012 87.0244 87.3243 87.0563 87.2442 87.0563H83.0115C82.9313 87.0563 82.8544 87.0244 82.7977 86.9677C82.741 86.911 82.7092 86.8341 82.7092 86.7539V85.5446C82.7092 85.4644 82.6773 85.3875 82.6206 85.3308C82.5639 85.2741 82.487 85.2423 82.4068 85.2423C82.3266 85.2423 82.2497 85.2741 82.193 85.3308C82.1363 85.3875 82.1045 85.4644 82.1045 85.5446V86.7539C82.1045 86.9945 82.2001 87.2252 82.3701 87.3953C82.5402 87.5654 82.7709 87.6609 83.0115 87.6609H87.2442C87.4847 87.6609 87.7154 87.5654 87.8855 87.3953C88.0556 87.2252 88.1512 86.9945 88.1512 86.7539V85.5446C88.1512 85.4644 88.1193 85.3875 88.0626 85.3308C88.0059 85.2741 87.929 85.2423 87.8488 85.2423ZM84.9132 85.7592C84.9419 85.7868 84.9758 85.8083 85.0129 85.8227C85.0491 85.8387 85.0883 85.847 85.1278 85.847C85.1674 85.847 85.2065 85.8387 85.2427 85.8227C85.2798 85.8083 85.3137 85.7868 85.3425 85.7592L86.5518 84.5499C86.6087 84.493 86.6407 84.4158 86.6407 84.3353C86.6407 84.2547 86.6087 84.1775 86.5518 84.1206C86.4949 84.0637 86.4177 84.0317 86.3372 84.0317C86.2566 84.0317 86.1794 84.0637 86.1225 84.1206L85.4302 84.816V81.9166C85.4302 81.8364 85.3983 81.7595 85.3416 81.7028C85.2849 81.6461 85.208 81.6143 85.1278 81.6143C85.0476 81.6143 84.9707 81.6461 84.914 81.7028C84.8573 81.7595 84.8255 81.8364 84.8255 81.9166V84.816L84.1331 84.1206C84.105 84.0924 84.0715 84.0701 84.0347 84.0548C83.9978 84.0395 83.9584 84.0317 83.9185 84.0317C83.8786 84.0317 83.8392 84.0395 83.8023 84.0548C83.7655 84.0701 83.732 84.0924 83.7038 84.1206C83.6756 84.1488 83.6533 84.1823 83.638 84.2191C83.6228 84.2559 83.6149 84.2954 83.6149 84.3353C83.6149 84.3751 83.6228 84.4146 83.638 84.4514C83.6533 84.4883 83.6756 84.5217 83.7038 84.5499L84.9132 85.7592Z" fill="white"/>
</g>
</g>
<defs>
<clipPath id="clip0_14_12">
<rect width="171" height="174" fill="white"/>
</clipPath>
</defs>
</svg>
