<svg width="18" height="18" viewBox="0 0 18 18" fill="none" xmlns="http://www.w3.org/2000/svg">
<g id="Group 72627">
<path id="Vector" d="M8.90317 0H15.2998C16.6783 0.0892682 17.8388 1.23073 17.9983 2.59463V15.4434C17.8154 16.7868 16.671 17.9019 15.31 18H8.99683C7.64171 17.8873 6.43732 16.7502 6.35683 15.3732C6.3422 14.5171 6.28659 13.6493 6.3861 12.7976C6.55732 12.0468 7.78659 12.0366 7.96951 12.7829C8.11586 13.6332 7.94025 14.5054 8.05586 15.3585C8.15537 15.9644 8.76707 16.361 9.36122 16.3127C11.2607 16.3097 13.1617 16.3185 15.0612 16.3083C15.7329 16.3449 16.3417 15.7449 16.3051 15.0702C16.3168 11.3151 16.3037 7.55853 16.311 3.80341C16.3095 3.41707 16.3329 3.02927 16.2773 2.64585C16.1778 2.08683 15.6319 1.66683 15.0685 1.69171C13.1676 1.68146 11.2651 1.69024 9.36415 1.68732C8.85049 1.65512 8.30903 1.92732 8.11878 2.42341C7.94317 2.96195 8.04269 3.54292 8.02659 4.09902C8.00903 4.49414 8.0939 4.98146 7.76025 5.27561C7.4222 5.61804 6.80903 5.56975 6.52073 5.18926C6.27781 4.88048 6.35391 4.46341 6.33488 4.09902C6.35391 3.24439 6.23537 2.32975 6.66561 1.54829C7.09586 0.693658 7.9739 0.150732 8.90317 0Z" fill="#231E5A"/>
<path id="Vector_2" d="M3.14634 5.49175C3.35561 5.2737 3.63366 5.09223 3.95122 5.15223C4.54975 5.17272 4.92585 5.96297 4.55122 6.43711C4.03756 7.05175 3.42292 7.57711 2.87122 8.15662C5.27853 8.16248 7.68731 8.15223 10.0946 8.15955C10.5454 8.1215 11.0137 8.45516 11.0268 8.92784C11.1 9.44296 10.6083 9.88052 10.1093 9.83662C7.69756 9.85126 5.28439 9.83077 2.87268 9.8454C3.4317 10.4205 4.03463 10.9517 4.55561 11.5605C4.97561 12.0756 4.47073 12.942 3.81805 12.8513C3.50488 12.8717 3.27805 12.6347 3.07317 12.4371C2.37073 11.7259 1.66244 11.0205 0.955609 10.3137C0.607317 9.96101 0.199024 9.64199 0 9.1737V8.82248C0.182927 8.38638 0.556097 8.08345 0.880975 7.75711C1.63902 7.00492 2.38975 6.2454 3.14634 5.49175Z" fill="#231E5A"/>
</g>
</svg>
