<svg width="13" height="15" viewBox="0 0 13 15" fill="none" xmlns="http://www.w3.org/2000/svg">
<path d="M12.9377 10.1705L11.4601 4.65025C11.1446 3.46938 10.4571 2.43185 9.50698 1.70277C8.5569 0.973685 7.39885 0.594958 6.21714 0.626863C5.03544 0.658767 3.89798 1.09947 2.98581 1.87883C2.07363 2.65819 1.43916 3.73142 1.18337 4.92771L0.0404994 10.2589C-0.0148011 10.5172 -0.0134523 10.785 0.0444465 11.0427C0.102345 11.3004 0.215317 11.5413 0.375025 11.7476C0.534734 11.954 0.737105 12.1206 0.967208 12.2351C1.19731 12.3495 1.44927 12.409 1.70451 12.4091H3.7544C3.88483 13.0749 4.23333 13.6735 4.74083 14.1035C5.24834 14.5335 5.88365 14.7683 6.53911 14.7683C7.19457 14.7683 7.82988 14.5335 8.33738 14.1035C8.84489 13.6735 9.19339 13.0749 9.32382 12.4091H11.2959C11.5585 12.4089 11.8175 12.3459 12.0528 12.2249C12.288 12.104 12.4932 11.9283 12.6521 11.7116C12.8111 11.4949 12.9196 11.2431 12.9693 10.9758C13.0189 10.7085 13.0077 10.4329 12.9377 10.1705ZM6.53911 13.5872C6.18775 13.5857 5.84541 13.4717 5.55895 13.2608C5.27248 13.0499 5.05587 12.7524 4.93875 12.4091H8.13947C8.02235 12.7524 7.80574 13.0499 7.51927 13.2608C7.2328 13.4717 6.89047 13.5857 6.53911 13.5872ZM11.7477 10.9982C11.6946 11.0711 11.6259 11.1301 11.547 11.1705C11.468 11.2109 11.3811 11.2316 11.293 11.2309H1.70451C1.61941 11.2309 1.5354 11.2111 1.45868 11.1729C1.38197 11.1347 1.3145 11.0792 1.26126 11.0104C1.20802 10.9415 1.17037 10.8612 1.15108 10.7753C1.1318 10.6894 1.13137 10.6001 1.14984 10.514L2.29271 5.18278C2.49409 4.2439 2.99247 3.40175 3.70862 2.79019C4.42478 2.17863 5.3176 1.83277 6.24516 1.80758C7.17273 1.78239 8.0818 2.07933 8.82786 2.65118C9.57392 3.22303 10.1142 4.03698 10.3627 4.96364L11.8403 10.4839C11.8644 10.5712 11.8686 10.6631 11.8525 10.7524C11.8365 10.8417 11.8005 10.9258 11.7477 10.9982Z" fill="white"/>
</svg>
